<?xml version="1.0" encoding="UTF-8"?>
<svg version="1.1" xmlns="http://www.w3.org/2000/svg" width="67" height="67">
<path d="M0,0 L10,0 L10,1 L11,1 L11,3 L12,3 L12,6 L13,6 L13,9 L14,9 L14,12 L15,12 L15,15 L16,15 L16,18 L17,18 L17,21 L18,21 L18,24 L19,24 L19,27 L20,27 L20,30 L21,30 L21,33 L22,33 L22,36 L23,36 L23,38 L24,38 L24,41 L25,41 L25,44 L26,44 L26,47 L27,47 L27,50 L28,50 L28,53 L29,53 L29,56 L21,56 L21,55 L20,55 L20,52 L19,52 L19,49 L18,49 L18,47 L17,47 L17,44 L16,44 L16,41 L15,41 L15,39 L-4,39 L-4,40 L-5,40 L-5,43 L-6,43 L-6,46 L-7,46 L-7,49 L-8,49 L-8,52 L-9,52 L-9,55 L-10,55 L-10,56 L-18,56 L-18,53 L-17,53 L-17,50 L-16,50 L-16,47 L-15,47 L-15,44 L-14,44 L-14,41 L-13,41 L-13,38 L-12,38 L-12,35 L-11,35 L-11,33 L-10,33 L-10,30 L-9,30 L-9,27 L-8,27 L-8,24 L-7,24 L-7,21 L-6,21 L-6,18 L-5,18 L-5,15 L-4,15 L-4,12 L-3,12 L-3,9 L-2,9 L-2,6 L-1,6 L-1,3 L0,3 Z M5,9 L5,11 L4,11 L4,14 L3,14 L3,18 L2,18 L2,21 L1,21 L1,24 L0,24 L0,27 L-1,27 L-1,30 L-2,30 L-2,33 L13,33 L13,31 L12,31 L12,28 L11,28 L11,25 L10,25 L10,22 L9,22 L9,19 L8,19 L8,16 L7,16 L7,13 L6,13 L6,9 Z " fill="#FF8080" transform="translate(28,5)"/>
</svg>
